<?xml version="1.0" encoding="UTF-8" standalone="no"?><!-- Generator: Gravit.io --><svg xmlns="http://www.w3.org/2000/svg" xmlns:xlink="http://www.w3.org/1999/xlink" style="isolation:isolate" viewBox="682 280 147.744 25" width="147.744pt" height="25pt"><defs><clipPath id="_clipPath_woChcS0O1z2OoizOoeFdbfuuZW19wcZE"><rect x="682" y="280" width="147.744" height="25"/></clipPath></defs><g clip-path="url(#_clipPath_woChcS0O1z2OoizOoeFdbfuuZW19wcZE)"><g><path d=" M 719 286.299 L 724.227 286.299 C 724.973 286.299 725.661 286.454 726.289 286.765 C 726.918 287.076 727.412 287.5 727.773 288.035 C 728.134 288.57 728.315 289.155 728.315 289.789 C 728.315 290.461 728.15 291.043 727.82 291.535 C 727.49 292.026 727.058 292.403 726.523 292.664 L 726.523 292.814 C 727.22 293.062 727.773 293.457 728.184 293.999 C 728.594 294.54 728.8 295.19 728.8 295.949 C 728.8 296.684 728.604 297.334 728.212 297.9 C 727.812 298.473 727.264 298.925 726.625 299.207 C 725.96 299.512 725.222 299.664 724.413 299.664 L 719 299.664 L 719 286.299 Z  M 724.04 291.749 C 724.588 291.749 725.026 291.597 725.356 291.292 C 725.686 290.987 725.851 290.604 725.851 290.144 C 725.851 289.696 725.692 289.32 725.375 289.014 C 725.057 288.71 724.637 288.557 724.115 288.557 L 721.52 288.557 L 721.52 291.749 L 724.04 291.749 Z  M 724.32 297.368 C 724.93 297.368 725.406 297.209 725.748 296.892 C 726.09 296.575 726.261 296.161 726.261 295.651 C 726.261 295.141 726.087 294.724 725.739 294.4 C 725.39 294.076 724.892 293.915 724.245 293.915 L 721.52 293.915 L 721.52 297.368 L 724.32 297.368 Z  M 737.247 299.963 C 735.94 299.963 734.755 299.655 733.691 299.039 C 732.641 298.437 731.774 297.563 731.18 296.509 C 730.57 295.439 730.265 294.263 730.265 292.981 C 730.265 291.7 730.57 290.524 731.18 289.453 C 731.774 288.399 732.641 287.525 733.69 286.924 C 734.756 286.308 735.94 286 737.248 286 C 738.554 286 739.74 286.308 740.804 286.924 C 741.853 287.526 742.721 288.4 743.314 289.454 C 743.924 290.524 744.229 291.7 744.229 292.981 C 744.229 294.263 743.924 295.439 743.314 296.509 C 742.721 297.563 741.853 298.437 740.804 299.039 C 739.74 299.655 738.554 299.963 737.248 299.963 L 737.247 299.963 Z  M 737.247 297.573 C 738.037 297.581 738.816 297.382 739.505 296.995 C 740.184 296.615 740.743 296.052 741.12 295.371 C 741.512 294.674 741.708 293.877 741.708 292.981 C 741.708 292.085 741.512 291.289 741.12 290.592 C 740.743 289.911 740.184 289.348 739.505 288.968 C 738.816 288.581 738.037 288.381 737.247 288.389 C 736.459 288.38 735.683 288.58 734.997 288.968 C 734.322 289.351 733.767 289.913 733.392 290.592 C 733 291.289 732.804 292.085 732.804 292.982 C 732.804 293.877 733 294.674 733.392 295.371 C 733.767 296.05 734.322 296.612 734.997 296.995 C 735.683 297.383 736.459 297.582 737.247 297.573 Z  M 752.6 299.963 C 751.293 299.963 750.108 299.655 749.044 299.039 C 747.995 298.437 747.127 297.563 746.534 296.509 C 745.924 295.439 745.619 294.263 745.619 292.981 C 745.619 291.7 745.924 290.524 746.533 289.453 C 747.127 288.399 747.994 287.525 749.044 286.924 C 750.108 286.308 751.294 286 752.6 286 C 753.907 286 755.092 286.308 756.156 286.924 C 757.205 287.526 758.073 288.4 758.666 289.454 C 759.276 290.524 759.581 291.7 759.581 292.981 C 759.581 294.263 759.276 295.439 758.667 296.509 C 758.073 297.563 757.206 298.437 756.156 299.039 C 755.092 299.655 753.906 299.963 752.6 299.963 L 752.6 299.963 Z  M 752.6 297.573 C 753.391 297.581 754.17 297.382 754.859 296.995 C 755.538 296.615 756.097 296.052 756.473 295.371 C 756.865 294.674 757.061 293.877 757.061 292.981 C 757.061 292.085 756.865 291.289 756.473 290.592 C 756.097 289.911 755.538 289.348 754.859 288.968 C 754.17 288.581 753.391 288.381 752.6 288.389 C 751.812 288.38 751.036 288.58 750.35 288.968 C 749.675 289.351 749.12 289.913 748.745 290.592 C 748.353 291.289 748.157 292.085 748.157 292.982 C 748.157 293.877 748.353 294.674 748.745 295.371 C 749.12 296.05 749.676 296.613 750.351 296.995 C 751.037 297.382 751.813 297.582 752.6 297.573 L 752.6 297.573 Z  M 761.83 286.3 L 764.35 286.3 L 764.35 292.03 L 764.5 292.03 L 769.39 286.3 L 772.433 286.3 L 772.433 286.449 L 767.6 291.973 L 772.938 299.515 L 772.938 299.664 L 769.858 299.664 L 765.864 293.971 L 764.352 295.744 L 764.352 299.664 L 761.832 299.664 L 761.832 286.299 L 761.83 286.3 Z  M 775.779 286 L 779.027 286 L 782.573 295.39 L 782.723 295.39 L 786.268 286 L 789.535 286 L 789.535 299.365 L 787.034 299.365 L 787.034 292.776 L 787.184 290.555 L 787.034 290.555 L 783.636 299.365 L 781.676 299.365 L 778.26 290.555 L 778.111 290.555 L 778.261 292.776 L 778.261 299.366 L 775.778 299.366 L 775.778 286 L 775.779 286 Z  M 796.579 286 L 799.473 286 L 804.494 299.365 L 801.713 299.365 L 800.593 296.173 L 795.478 296.173 L 794.358 299.365 L 791.577 299.365 L 796.579 286 Z  M 799.772 293.859 L 798.596 290.499 L 798.11 288.893 L 797.961 288.893 L 797.476 290.499 L 796.281 293.859 L 799.771 293.859 L 799.772 293.859 Z  M 806.553 286 L 811.425 286 C 812.296 286 813.071 286.18 813.749 286.541 C 814.427 286.902 814.953 287.403 815.326 288.044 C 815.7 288.684 815.886 289.41 815.886 290.219 C 815.886 291.077 815.616 291.839 815.074 292.505 C 814.539 293.166 813.832 293.667 813.03 293.952 L 813.012 294.082 L 816.596 299.216 L 816.596 299.366 L 813.702 299.366 L 810.249 294.344 L 809.073 294.344 L 809.073 299.365 L 806.553 299.365 L 806.553 286 Z  M 811.406 292.03 C 811.979 292.03 812.446 291.855 812.806 291.507 C 813.167 291.158 813.348 290.717 813.348 290.181 C 813.348 289.671 813.176 289.236 812.834 288.875 C 812.492 288.514 812.028 288.333 811.444 288.333 L 809.073 288.333 L 809.073 292.029 L 811.406 292.029 L 811.406 292.03 Z  M 818.636 286 L 821.156 286 L 821.156 291.73 L 821.306 291.73 L 826.196 286 L 829.239 286 L 829.239 286.15 L 824.404 291.675 L 829.744 299.216 L 829.744 299.366 L 826.664 299.366 L 822.668 293.672 L 821.156 295.445 L 821.156 299.365 L 818.636 299.365 L 818.636 286 L 818.636 286 Z " fill="rgb(255,255,255)"/><g><circle vector-effect="non-scaling-stroke" cx="694.5" cy="292.5" r="12.5" fill="rgb(255,255,255)"/><path d=" M 691 289 L 691 299 L 694.54 295.56 L 698.078 299 L 698.078 289 C 698.078 287.895 697.183 287 696.078 287 L 693 287 C 691.895 287 691 287.895 691 289 Z " fill-rule="evenodd" fill="rgb(37,44,69)"/></g></g></g></svg>